<svg xmlns="http://www.w3.org/2000/svg" width="32" height="32" enable-background="new 0 0 32 32" viewBox="0 0 32 32"><path d="M 5.5 0 C 5.2236328 0 5 0.2236328 5 0.5 L 5 2 L 5 3 L 5 29 L 4.9160156 29 C 4.3637085 29 4 29.406677 4 29.958984 L 4 31 L 4 32 L 4.9160156 32 L 5.9589844 32 L 7 32 L 7 31 L 7 29.958984 C 7 29.421447 6.5317993 28.989868 6 28.966797 L 6 3 L 8.0175781 3 C 8.0171509 3.1818237 8.0487062 3.3638917 8.1523438 3.5292969 L 13 11.277344 L 13 19 L 13 20 L 13 29 C 13 29.552734 13.447754 30 14 30 C 14.552246 30 15 29.552734 15 29 L 15 22 L 17 22 L 17 29 C 17 29.552734 17.447754 30 18 30 C 18.552246 30 19 29.552734 19 29 L 19 20 L 19 19 L 19 11.287109 L 23.847656 3.53125 C 23.950989 3.3656616 23.982788 3.1817627 23.982422 3 L 26 3 L 26 29 L 25.916016 29 C 25.363706 29 25 29.406677 25 29.958984 L 25 31 L 25 32 L 25.916016 32 L 26.958984 32 L 28 32 L 28 31 L 28 29.958984 C 28 29.421447 27.531799 28.989868 27 28.966797 L 27 0.5 C 27 0.2236328 26.776367 0 26.5 0 C 26.223633 0 26 0.2236328 26 0.5 L 26 2 L 6 2 L 6 0.5 C 6 0.2236328 5.7763672 0 5.5 0 z M 10.179688 3 L 21.820312 3 L 17.445312 10 L 14.558594 10 L 10.179688 3 z M 16 4 A 2.5 2.5 0 0 0 13.5 6.5 A 2.5 2.5 0 0 0 16 9 A 2.5 2.5 0 0 0 18.5 6.5 A 2.5 2.5 0 0 0 16 4 z "/></svg>