<svg xmlns="http://www.w3.org/2000/svg" width="32" height="32" enable-background="new 0 0 32 32" viewBox="0 0 32 32"><path d="M 5.453125 11 A 2.4999871 2.4999871 0 0 0 3.8515625 11.615234 A 2.4999871 2.4999871 0 0 0 3.609375 15.142578 A 2.4999871 2.4999871 0 0 0 7.1367188 15.384766 A 2.4999871 2.4999871 0 0 0 7.3789062 11.857422 A 2.4999871 2.4999871 0 0 0 5.453125 11 z M 10.871094 11.992188 C 9.9420203 12.047142 9.1513061 12.755859 9.0175781 13.712891 C 8.9010619 14.544129 9.3151855 15.325256 10 15.720703 L 10 20 L 2.5 20 C 2.2236328 20 2 20.223633 2 20.5 C 2 20.776367 2.2236328 21 2.5 21 L 29.5 21 C 29.776367 21 30 20.776367 30 20.5 C 30 20.223633 29.776367 20 29.5 20 L 28 20 L 12 20 L 12 16.150391 L 19.722656 17.230469 C 19.816896 17.244139 19.909668 17.25 20.001953 17.25 C 20.359558 17.25 20.700256 17.152774 20.996094 16.982422 L 27.59375 19.914062 C 27.726074 19.972652 27.864257 20 28 20 C 28.382812 20 28.748536 19.77832 28.914062 19.40625 C 29.138672 18.901367 28.910674 18.310547 28.40625 18.085938 L 21.992188 15.234375 C 21.985588 14.258789 21.272339 13.408997 20.277344 13.269531 L 11.275391 12.009766 C 11.138489 11.989746 11.003819 11.984337 10.871094 11.992188 z "/></svg>