<?xml version="1.0"?>
<svg xmlns="http://www.w3.org/2000/svg" viewBox="0 0 24 24">
    <path d="M 10.96875 2 C 9.8642193 2.0092535 8.9907465 2.9267193 9 4.03125 C 9.0092535 5.1357807 9.9267193 6.0092535 11.03125 6 C 12.13578 5.9907465 13.009254 5.0732807 13 3.96875 C 12.990746 2.8642193 12.07328 1.9907465 10.96875 2 z M 9.75 7 C 9.013 7 8.348 7.4125 8 8.0625 C 8 8.0625 6.802 12.34525 6.375 13.40625 C 5.993 14.35625 6.14375 15.5565 6.96875 16.0625 C 7.70175 16.5125 11.40875 16.9115 12.46875 17.0625 L 9.5 22 L 12 22 L 14.6875 17.4375 C 14.9235 16.7945 15.00675 16.07725 14.59375 15.53125 C 14.21275 15.02825 13.435 14.7945 13 14.6875 C 12.318 14.5185 10.951 14.206 10 14 L 11.5625 9 L 18 9 L 18 7 L 9.75 7 z"/>
</svg>
